<svg xmlns="http://www.w3.org/2000/svg">

<symbol id='social-1' viewBox="0 0 30 30" fill="none" >
<g clip-path="url(#clip0_12_220)">
<path d="M23.6577 22.3834H22.1128L22.12 21.4793C22.12 21.0774 22.4474 20.7487 22.8477 20.7487H22.9462C23.3471 20.7487 23.6755 21.0774 23.6755 21.4793L23.6577 22.3834ZM17.8638 20.4459C17.4719 20.4459 17.1514 20.7112 17.1514 21.0361V25.4335C17.1514 25.7577 17.4719 26.0225 17.8638 26.0225C18.2572 26.0225 18.578 25.7577 18.578 25.4335V21.0361C18.578 20.7109 18.2572 20.4459 17.8638 20.4459ZM27.2728 17.9861V26.3515C27.2728 28.3581 25.5459 30 23.4356 30H7.65571C5.54449 30 3.81824 28.3581 3.81824 26.3515V17.9861C3.81824 15.9795 5.54449 14.3373 7.65571 14.3373H23.4356C25.5459 14.3373 27.2728 15.9795 27.2728 17.9861ZM8.70835 27.2598L8.7071 18.4478L10.6632 18.4484V17.1428L5.4488 17.1349V18.4185L7.07654 18.4232V27.2598H8.70835ZM14.572 19.7604H12.9411V24.4659C12.9411 25.1467 12.9821 25.487 12.9386 25.6071C12.806 25.9721 12.21 26.3594 11.9776 25.6465C11.9382 25.5217 11.9729 25.1451 11.9723 24.4984L11.9657 19.7604H10.3439L10.3489 24.4237C10.3502 25.1385 10.333 25.6717 10.3546 25.9141C10.3943 26.3417 10.3802 26.8406 10.7739 27.1252C11.5076 27.6581 12.9139 27.0458 13.2657 26.2844L13.2626 27.256L14.5723 27.2576V19.7604H14.572ZM19.7892 25.1489L19.7858 21.2325C19.7845 19.7399 18.6765 18.8458 17.1723 20.0535L17.1789 17.1418L15.5496 17.1443L15.5418 27.1945L16.8812 27.1747L17.0031 26.5488C18.7156 28.1318 19.7917 27.0473 19.7892 25.1489ZM24.8932 24.6298L23.6702 24.6364C23.6695 24.6853 23.668 24.7417 23.6674 24.8032V25.4908C23.6674 25.8586 23.3656 26.1583 22.9991 26.1583H22.7595C22.3924 26.1583 22.0909 25.8586 22.0909 25.4908V25.4145V24.6582V23.6822H24.8911V22.6201C24.8911 21.8439 24.8714 21.068 24.8076 20.6242C24.6074 19.2206 22.6522 18.9977 21.6646 19.7163C21.3544 19.9407 21.1177 20.241 20.9801 20.6447C20.8409 21.0484 20.7721 21.6 20.7721 22.3005V24.6355C20.7724 28.5175 25.4515 27.9689 24.8932 24.6298ZM18.6206 11.9519C18.7047 12.158 18.8354 12.325 19.0127 12.4511C19.1878 12.5753 19.4121 12.6377 19.6801 12.6377C19.9153 12.6377 20.1235 12.5737 20.3049 12.4417C20.4857 12.3102 20.638 12.1139 20.7621 11.852L20.7315 12.4968H22.5494V4.70594H21.1183V10.7695C21.1183 11.0978 20.85 11.3667 20.5219 11.3667C20.1958 11.3667 19.9265 11.0978 19.9265 10.7695V4.70594H18.4329V9.96078C18.4329 10.6302 18.4448 11.0764 18.4645 11.3027C18.4855 11.5274 18.5364 11.743 18.6206 11.9519ZM13.1116 7.55176C13.1116 6.80391 13.1735 6.21993 13.2964 5.79889C13.4202 5.37942 13.6426 5.04221 13.9647 4.78788C14.2858 4.53229 14.6971 4.40434 15.1971 4.40434C15.6178 4.40434 15.978 4.48754 16.2792 4.65048C16.5816 4.81436 16.8146 5.02708 16.9766 5.2896C17.1414 5.55307 17.2533 5.82379 17.313 6.1008C17.374 6.3816 17.404 6.80517 17.404 7.37654V9.34686C17.404 10.0695 17.3753 10.6012 17.3196 10.9387C17.2643 11.2772 17.1454 11.5911 16.9615 11.8854C16.7798 12.1766 16.5456 12.3944 16.2617 12.5334C15.9746 12.6736 15.6462 12.7423 15.2753 12.7423C14.861 12.7423 14.5119 12.6846 14.2242 12.5642C13.9356 12.4445 13.7126 12.2639 13.5538 12.0241C13.3933 11.7839 13.2804 11.4915 13.2123 11.1505C13.1438 10.8098 13.1112 10.2974 13.1112 9.61443V7.55176H13.1116ZM14.5354 10.6465C14.5354 11.0878 14.8613 11.448 15.2581 11.448C15.6553 11.448 15.9796 11.0878 15.9796 10.6465V6.49916C15.9796 6.05857 15.6553 5.69836 15.2581 5.69836C14.8613 5.69836 14.5354 6.05857 14.5354 6.49916V10.6465ZM9.50424 12.7407H11.2192L11.2211 6.76546L13.2476 1.64677H11.3719L10.2945 5.44876L9.20184 1.63637H7.34549L9.50143 6.7683L9.50424 12.7407Z" fill="currentColor"/>
</g>
<defs>
<clipPath id="clip0_12_220">
<rect width="30" height="30" fill="white"/>
</clipPath>
</defs>
</symbol>

<symbol id='social-2' viewBox="0 0 30 30" fill="none">
<g clip-path="url(#clip0_12_222)">
<path d="M19.605 0H10.395C1.99 0 0 1.99 0 10.395V19.605C0 28.01 1.99 30 10.395 30H19.605C28.01 30 30 28.01 30 19.605V10.395C30 1.99 27.9888 0 19.605 0ZM24.22 21.4037H22.04C21.215 21.4037 20.96 20.7475 19.4775 19.245C18.1862 17.995 17.615 17.8263 17.2975 17.8263C16.8525 17.8263 16.725 17.9538 16.725 18.5675V20.5363C16.725 21.0663 16.5562 21.3838 15.1587 21.3838C12.8512 21.3838 10.2887 19.9862 8.49 17.3813C5.78 13.5712 5.0375 10.7125 5.0375 10.12C5.0375 9.8025 5.165 9.50625 5.77875 9.50625H7.95875C8.50875 9.50625 8.72125 9.76 8.93375 10.3525C10.0125 13.465 11.8125 16.1962 12.5538 16.1962C12.8288 16.1962 12.9562 16.0688 12.9562 15.3713V12.1512C12.8713 10.6687 12.0875 10.5425 12.0875 10.0138C12.0875 9.75875 12.3 9.505 12.6375 9.505H16.0675C16.5338 9.505 16.7025 9.75875 16.7025 10.3088V14.65C16.7025 15.115 16.915 15.285 17.0413 15.285C17.3162 15.285 17.55 15.115 18.0575 14.6075C19.625 12.85 20.7463 10.14 20.7463 10.14C20.895 9.8225 21.1488 9.52625 21.7 9.52625H23.88C24.5362 9.52625 24.685 9.86375 24.5362 10.33C24.2612 11.6012 21.5938 15.3687 21.5938 15.3687C21.3612 15.75 21.2762 15.9187 21.5938 16.3438C21.8263 16.6612 22.5888 17.3175 23.0975 17.91C24.0288 18.9688 24.7475 19.8575 24.9388 20.4725C25.1513 21.085 24.8325 21.4025 24.2188 21.4025L24.22 21.4037Z" fill="currentColor"/>
</g>
<defs>
<clipPath id="clip0_12_222">
<rect width="30" height="30" fill="white"/>
</clipPath>
</defs>
</symbol>

<symbol id='social-3' viewBox="0 0 30 30" fill="none">
<g clip-path="url(#clip0_12_224)">
<path d="M5.47782 0C2.44335 0 0 2.44335 0 5.47782V24.5222C0 27.5567 2.44335 30 5.47782 30H15.7997V18.2719H12.6985V14.0494H15.7997V10.4419C15.7997 7.60764 17.6321 5.00532 21.8531 5.00532C23.5622 5.00532 24.826 5.16939 24.826 5.16939L24.7266 9.11253C24.7266 9.11253 23.4377 9.10035 22.0312 9.10035C20.5091 9.10035 20.265 9.80169 20.265 10.966V14.0494H24.8475L24.6478 18.2719H20.265V30.0001H24.5222C27.5567 30.0001 30 27.5567 30 24.5222V5.47785C30 2.44338 27.5567 3e-05 24.5222 3e-05H5.47779L5.47782 0Z" fill="currentColor"/>
</g>
<defs>
<clipPath id="clip0_12_224">
<rect width="30" height="30" fill="white"/>
</clipPath>
</defs>
</symbol>

<symbol id='social-4' viewBox="0 0 30 30" fill="none">
<g clip-path="url(#clip0_12_226)">
<path d="M26.7857 0H3.21429C1.43973 0 0 1.43973 0 3.21429V26.7857C0 28.5603 1.43973 30 3.21429 30H26.7857C28.5603 30 30 28.5603 30 26.7857V3.21429C30 1.43973 28.5603 0 26.7857 0ZM23.5112 10.6339C23.5246 10.8214 23.5246 11.0156 23.5246 11.2031C23.5246 17.0089 19.1049 23.6987 11.029 23.6987C8.53795 23.6987 6.22768 22.9754 4.28571 21.7299C4.64062 21.7701 4.98214 21.7835 5.34375 21.7835C7.39955 21.7835 9.28795 21.0871 10.7946 19.9085C8.86607 19.8683 7.24554 18.6027 6.68973 16.8616C7.36607 16.9621 7.97545 16.9621 8.67188 16.7812C6.66295 16.3728 5.15625 14.6049 5.15625 12.4687V12.4152C5.73884 12.7433 6.42187 12.9442 7.13839 12.971C6.536 12.5703 6.04218 12.0267 5.70098 11.3887C5.35979 10.7507 5.18185 10.0382 5.18304 9.31473C5.18304 8.49777 5.39732 7.74777 5.77902 7.09821C7.94196 9.76339 11.1897 11.5045 14.8326 11.692C14.2098 8.71205 16.4397 6.29464 19.1183 6.29464C20.3839 6.29464 21.5223 6.82366 22.3259 7.6808C23.317 7.4933 24.2679 7.125 25.1116 6.62277C24.7835 7.64062 24.0938 8.49777 23.183 9.04018C24.067 8.94643 24.9241 8.69866 25.7143 8.35714C25.1183 9.23438 24.3683 10.0112 23.5112 10.6339Z" fill="currentColor"/>
</g>
<defs>
<clipPath id="clip0_12_226">
<rect width="30" height="30" fill="white"/>
</clipPath>
</defs>
</symbol>

<symbol id='social-5' viewBox="0 0 29 30" fill="none">
<g clip-path="url(#clip0_12_228)">
<path d="M1.99095 -0.00480652L-0.00378418 5.14475V26.1916H7.08713V29.9952H11.0766L14.8407 26.1916H20.6062L28.3599 18.3568V-0.00480652H1.99095ZM25.7024 17.0108L21.2689 21.4907H14.178L10.4139 25.2943V21.4907H4.42969V2.68046H25.7024V17.0108ZM21.2689 7.83001V15.6581H18.6115V7.83001H21.2689ZM14.178 7.83001V15.6581H11.5206V7.83001H14.178Z" fill="currentColor"/>
</g>
<defs>
<clipPath id="clip0_12_228">
<rect width="28.3636" height="30" fill="white"/>
</clipPath>
</defs>
</symbol>

<symbol id='social-6' viewBox="0 0 30 30" fill="none">
<g clip-path="url(#clip0_12_230)">
<path d="M15 11.4281C14.2936 11.4284 13.6032 11.6381 13.0159 12.0307C12.4287 12.4234 11.9711 12.9813 11.701 13.634C11.4308 14.2867 11.3603 15.0049 11.4983 15.6977C11.6362 16.3904 11.9765 17.0268 12.4761 17.5262C12.9757 18.0256 13.6122 18.3656 14.305 18.5033C14.9978 18.6411 15.7159 18.5702 16.3685 18.2999C17.0211 18.0295 17.5789 17.5717 17.9713 16.9843C18.3638 16.3969 18.5732 15.7064 18.5732 15C18.5725 14.0527 18.1958 13.1444 17.5258 12.4746C16.8558 11.8049 15.9473 11.4285 15 11.4281ZM23.3511 8.68259C23.1693 8.22177 22.8947 7.80323 22.5444 7.45293C22.1941 7.10263 21.7756 6.82804 21.3147 6.6462C19.9085 6.09107 16.5603 6.21562 15 6.21562C13.4397 6.21562 10.0949 6.08638 8.6846 6.6462C8.22378 6.82804 7.80524 7.10263 7.45494 7.45293C7.10464 7.80323 6.83005 8.22177 6.64821 8.68259C6.09375 10.0888 6.21763 13.4404 6.21763 14.9993C6.21763 16.5583 6.09375 19.9058 6.65089 21.3167C6.83273 21.7776 7.10732 22.1961 7.45761 22.5464C7.80791 22.8967 8.22646 23.1713 8.68728 23.3531C10.0935 23.9083 13.4417 23.7837 15.0027 23.7837C16.5636 23.7837 19.9071 23.9129 21.3174 23.3531C21.7782 23.1713 22.1968 22.8967 22.5471 22.5464C22.8974 22.1961 23.172 21.7776 23.3538 21.3167C23.9129 19.9105 23.7844 16.5589 23.7844 15C23.7844 13.4411 23.9129 10.0942 23.3538 8.68326L23.3511 8.68259ZM15 20.4911C13.914 20.4911 12.8523 20.169 11.9493 19.5657C11.0463 18.9623 10.3425 18.1047 9.92691 17.1013C9.5113 16.098 9.40256 14.9939 9.61444 13.9287C9.82631 12.8636 10.3493 11.8852 11.1172 11.1172C11.8852 10.3493 12.8636 9.82631 13.9287 9.61444C14.9939 9.40256 16.098 9.5113 17.1013 9.92691C18.1047 10.3425 18.9623 11.0463 19.5657 11.9493C20.169 12.8523 20.4911 13.914 20.4911 15C20.492 15.7213 20.3505 16.4358 20.0749 17.1024C19.7992 17.769 19.3948 18.3747 18.8847 18.8847C18.3747 19.3948 17.769 19.7992 17.1024 20.0749C16.4358 20.3505 15.7213 20.492 15 20.4911ZM20.7174 10.5603C20.4639 10.5604 20.216 10.4853 20.0052 10.3446C19.7943 10.2038 19.6299 10.0037 19.5328 9.76952C19.4357 9.53533 19.4102 9.2776 19.4596 9.02894C19.509 8.78027 19.631 8.55183 19.8102 8.37251C19.9894 8.1932 20.2178 8.07106 20.4664 8.02155C20.7151 7.97204 20.9728 7.99739 21.2071 8.09437C21.4413 8.19136 21.6415 8.35564 21.7824 8.56643C21.9233 8.77722 21.9984 9.02505 21.9984 9.27857C21.9991 9.44693 21.9666 9.61377 21.9027 9.76952C21.8388 9.92527 21.7447 10.0669 21.626 10.1862C21.5072 10.3055 21.366 10.4002 21.2106 10.4649C21.0551 10.5295 20.8884 10.5629 20.7201 10.5629L20.7174 10.5603ZM26.7857 0H3.21429C2.3618 0 1.54424 0.338647 0.941442 0.941443C0.338647 1.54424 0 2.3618 0 3.21429L0 26.7857C0 27.6382 0.338647 28.4558 0.941442 29.0586C1.54424 29.6614 2.3618 30 3.21429 30H26.7857C27.6382 30 28.4558 29.6614 29.0586 29.0586C29.6614 28.4558 30 27.6382 30 26.7857V3.21429C30 2.3618 29.6614 1.54424 29.0586 0.941443C28.4558 0.338647 27.6382 0 26.7857 0ZM25.6393 19.4196C25.5529 21.1359 25.1612 22.6567 23.9083 23.9062C22.6554 25.1558 21.1359 25.5556 19.4217 25.6373C17.6531 25.7371 12.3509 25.7371 10.5824 25.6373C8.86607 25.5509 7.35067 25.1585 6.09576 23.9062C4.84085 22.654 4.44643 21.1326 4.36473 19.4196C4.26496 17.6504 4.26496 12.3475 4.36473 10.5804C4.45112 8.86406 4.83817 7.3433 6.09576 6.09375C7.35335 4.8442 8.87277 4.44911 10.5824 4.36741C12.3509 4.26763 17.6531 4.26763 19.4217 4.36741C21.1379 4.45379 22.658 4.84621 23.9083 6.09844C25.1585 7.35067 25.5576 8.8721 25.6393 10.5884C25.7391 12.3509 25.7391 17.6491 25.6393 19.4196Z" fill="currentColor"/>
</g>
<defs>
<clipPath id="clip0_12_230">
<rect width="30" height="30" fill="white"/>
</clipPath>
</defs>
</symbol>

<symbol id='reviews-icon' viewBox="0 0 132 132" fill="none">
<path d="M65.1797 11.001L66 11.3701L66.8203 11.001L85.5547 2.57324L95.998 21.0967L96.4268 21.8574L97.2773 22.0596L117.256 26.8135L115.368 48.2881L115.295 49.1104L115.824 49.7441L129.395 66L115.824 82.2559L115.295 82.8896L115.368 83.7119L117.256 105.186L97.2773 109.94L96.4287 110.142L95.999 110.901L85.5566 129.364L66.8203 120.937L65.9971 120.565L65.1748 120.938L46.4395 129.423L36.001 110.964L35.5713 110.205L34.7227 110.003L14.7432 105.248L16.6328 83.7119L16.7041 82.8896L16.1758 82.2559L2.60254 65.9971L16.1777 49.6787L16.7041 49.0459L16.6328 48.2256L14.7432 26.6934L34.7178 21.998L35.5703 21.7979L36.001 21.0361L46.4424 2.57227L65.1797 11.001Z" stroke="#F8F200" stroke-width="4"/>
<path d="M54.3044 90.084L48.4707 84.2504C46.1373 81.9169 43.8038 81.9169 41.4704 84.2504L36.061 89.6598L38.3945 91.9932L43.8038 86.5838C44.5817 85.806 45.3524 85.799 46.1161 86.5626L46.1373 86.5838L42.0644 90.6568C40.1127 92.6084 40.0915 94.5388 42.0007 96.448C43.9806 98.4279 45.9464 98.442 47.898 96.4904L54.3044 90.084ZM44.3766 94.157C43.9948 93.7751 44.0018 93.3862 44.3978 92.9902L48.4707 88.9173L49.6375 90.084L45.5645 94.157C45.1686 94.5529 44.7726 94.5529 44.3766 94.157ZM66.0777 78.3107L62.7472 81.6412L55.5772 81.8109L54.4104 82.9776L57.9106 86.4778L55.5772 88.8112L46.2434 79.4774L48.5768 77.144L52.077 80.6441L53.2437 79.4774L53.4346 72.2861L56.7439 68.9769L56.6378 78.4168L66.0777 78.3107ZM64.3889 61.3318L71.3893 68.3322L67.8891 71.8324C67.1113 72.6102 66.3335 72.6102 65.5557 71.8324L59.722 65.9987L57.3886 68.3322L63.2222 74.1658C65.5557 76.4993 67.8891 76.4993 70.2226 74.1658L74.8895 69.4989L77.2229 71.8324L79.6624 69.3929L74.9955 64.726L73.7227 65.9987L66.7224 58.9984L64.3889 61.3318ZM87.305 57.0834L84.9715 59.4169L83.9745 58.4198C83.5785 60.428 82.8149 61.9978 81.6835 63.1292C79.35 65.4626 77.0166 65.4626 74.6831 63.1292L68.6374 57.0834L70.9708 54.7499L77.0166 60.7957C77.7803 61.5594 78.5581 61.5594 79.35 60.7957C80.7077 59.0421 81.1319 57.1329 80.6228 55.0681L75.6377 50.083L77.9712 47.7496L87.305 57.0834ZM82.2138 49.4466C80.2339 47.4667 80.2198 45.501 82.1714 43.5494L88.5778 37.143L97.9116 46.4768L95.5781 48.8103L92.078 45.3101L91.0385 46.3495L91.6113 52.7771L88.5778 55.8106L88.005 49.383C86.0534 51.3346 84.123 51.3558 82.2138 49.4466ZM88.5778 41.8099L84.5048 45.8828C84.1089 46.2788 84.123 46.6889 84.5473 47.1132C84.9008 47.4667 85.2756 47.4455 85.6716 47.0496L89.7445 42.9766L88.5778 41.8099Z" fill="#F8F200"/>
</symbol>

<symbol id='advantages-icon-1' viewBox="0 0 80 80" fill="none">
<g clip-path="url(#clip0_14_68)">
<path d="M40.0007 80C39.6031 80 39.2071 79.993 38.8118 79.9815L46.9866 57.5152H58.2366C60.2112 57.5152 62.3788 55.9972 63.0542 54.1426L71.9227 29.7822C73.3738 25.7939 71.0894 22.5309 66.8455 22.5309H51.2381L38.1433 58.5154H38.1383L30.7142 78.9141C13.1014 74.727 0.000671387 58.8941 0.000671387 40C0.000671387 21.6509 12.3562 6.18889 29.2012 1.47667L21.541 22.5309H21.5388L8.80437 57.5152L17.2816 57.5159L28.1112 27.7881H34.4825L23.6529 57.5159L32.127 57.5174L42.2192 29.7822C43.671 25.7939 41.3864 22.5309 37.1464 22.5309H30.0205L38.2025 0.042037C38.7988 0.0155556 39.3977 0 40.0003 0C62.0918 0 80.0003 17.9085 80.0003 40C80.0003 62.0913 62.0918 80 40.0003 80H40.0007ZM64.2029 27.7667H57.8334L48.9136 52.2404H55.2833L64.2029 27.7667Z" fill="currentColor"/>
</g>
<defs>
<clipPath id="clip0_14_68">
<rect width="80" height="80" fill="white"/>
</clipPath>
</defs>
</symbol>

<symbol id='advantages-icon-2' viewBox="0 0 91 21" fill="none">
<path d="M90 0.279833L1.14363e-05 18.8995L0.327867 19.8442L90.3279 1.22456L90 0.279833Z" fill="currentColor"/>
<path d="M90.2267 19.183L0.439419 -4.55735e-05L0.101474 0.94112L89.8888 20.1241L90.2267 19.183Z" fill="currentColor"/>
</symbol>



</svg>


